PathFileType	3	(X/Y/Z)	C:\Users\koon_\Desktop\
DataRate	CameraRate	NumFrames	NumMarkers	Units	OrigDataRate	OrigDataStartFrame	OrigNumFrames
100.0	100.0	8	27	mm	100.0	3471	3966	
Frame#	Time	GM:LFHD			GM:RFHD			GM:LBHD			GM:RBHD			GM:C7			GM:T10			GM:CLAV			GM:STRN			GM:RBAK			GM:LSHO			GM:LUPA			GM:LELB			GM:LFRA			GM:LWRA			GM:LWRB			GM:LFIN			GM:RSHO			GM:RUPA			GM:RELB			GM:RFRA			GM:RWRA			GM:RWRB			GM:RFIN			GM:LASI			GM:RASI			GM:LPSI			GM:RPSI			
		X1	Y1	Z1	X2	Y2	Z2	X3	Y3	Z3	X4	Y4	Z4	X5	Y5	Z5	X6	Y6	Z6	X7	Y7	Z7	X8	Y8	Z8	X9	Y9	Z9	X10	Y10	Z10	X11	Y11	Z11	X12	Y12	Z12	X13	Y13	Z13	X14	Y14	Z14	X15	Y15	Z15	X16	Y16	Z16	X17	Y17	Z17	X18	Y18	Z18	X19	Y19	Z19	X20	Y20	Z20	X21	Y21	Z21	X22	Y22	Z22	X23	Y23	Z23	X24	Y24	Z24	X25	Y25	Z25	X26	Y26	Z26	X27	Y27	Z27	
3471	34.7	94.381989	1597.7693	-19.006001	-59.465252	1590.6389	-18.070105	93.821228	1591.1411	-152.08545	-69.222176	1585.3298	-133.7103	24.79941	1416.0527	-206.43602	30.404596	1218.2758	-242.64888	26.103649	1363.364	-48.336586	26.30607	1220.0422	4.9458246	-58.155972	1291.8417	-252.90108	186.76881	1402.9872	-145.79578	290.17252	1358.1267	-137.91818	450.88754	1235.0846	-115.03481	434.49084	1373.7037	-71.396538	448.23795	1439.2631	-50.644291	511.83151	1426.8003	-34.339497	475.6785	1518.1991	-52.760452	-147.0153	1399.8657	-152.36412	-318.4263	1287.7253	-125.50998	-397.79837	1219.9053	-110.28783	-371.92847	1312.343	-107.50189	-393.54926	1425.7303	-62.939465	-448.53534	1412.8729	-39.289703	-421.57108	1493.5251	-79.056786	164.38667	902.75275	-16.083996	-125.8664	906.30975	-18.382265	92.177238	951.22144	-227.97772	-46.384804	942.00909	-230.62712
3472	34.71	94.106987	1597.7435	-18.718607	-59.769783	1590.4999	-17.792149	93.585869	1591.2534	-151.76756	-69.474739	1585.3025	-133.50288	24.748219	1416.05	-206.39685	30.35125	1218.2998	-242.67671	25.654877	1363.4741	-49.032349	26.135824	1220.1766	5.043674	-58.168068	1291.7717	-252.86162	186.37839	1403.2606	-146.00499	289.88083	1358.9954	-138.43231	451.32108	1236.9535	-115.94201	433.11261	1375.3292	-73.462051	446.53302	1441.6271	-54.008324	510.23026	1430.0966	-37.260777	473.15851	1520.7002	-57.114735	-146.82037	1400.1086	-152.77376	-318.77435	1289.3031	-126.54953	-398.73474	1221.9067	-111.61468	-371.67572	1313.9694	-109.36937	-391.79974	1427.9105	-65.790039	-447.11493	1415.9729	-42.129288	-418.91733	1495.8608	-82.664215	164.13297	902.73199	-15.994985	-126.06175	906.27008	-18.441956	92.072647	951.21051	-227.94273	-46.426472	941.98645	-230.68839
3473	34.72	93.747757	1597.641	-18.351171	-60.110821	1590.3171	-17.53043	93.366714	1591.3826	-151.45538	-69.672707	1585.2823	-133.24541	24.687346	1416.098	-206.34123	30.287371	1218.2821	-242.67171	25.447372	1363.6035	-49.133419	25.918413	1220.3436	5.0248823	-58.166519	1291.7172	-252.79218	185.96956	1403.5211	-146.23048	289.59103	1359.8153	-138.96616	451.81802	1238.7555	-117.01866	432.5043	1377.3855	-75.889267	445.06784	1443.9506	-57.04073	508.73022	1433.287	-39.980957	470.78317	1523.036	-61.174519	-146.68584	1400.359	-153.10655	-319.11508	1290.8824	-127.55863	-399.48535	1223.8092	-112.84629	-371.42215	1315.4449	-111.27681	-389.82919	1429.9055	-68.423271	-445.59653	1418.8799	-44.854553	-416.22342	1497.8682	-86.115685	163.92499	902.71802	-15.959673	-126.26514	906.23615	-18.555359	91.95507	951.1731	-227.88393	-46.55069	941.92383	-230.71802
3474	34.73	93.445335	1597.5215	-17.979839	-60.384441	1590.1219	-17.229614	93.15728	1591.4777	-151.06296	-69.817383	1585.2439	-132.9655	24.638847	1416.1553	-206.28468	30.241426	1218.3231	-242.82149	25.296381	1363.6887	-49.092655	25.770527	1220.462	5.1404848	-58.152664	1291.6631	-252.76521	185.54686	1403.7823	-146.45755	289.32623	1360.5596	-139.50717	452.21082	1240.4121	-118.11362	431.61542	1378.9183	-77.981171	443.2005	1445.7278	-59.64946	507.11691	1436.0682	-42.477943	468.49298	1525.2272	-64.899605	-146.5547	1400.592	-153.48892	-319.44702	1292.2148	-128.49254	-400.25522	1225.4587	-114.07059	-371.08243	1316.7596	-112.83443	-388.37979	1431.7039	-70.952133	-444.07141	1421.5811	-47.303509	-413.59357	1499.6357	-89.262268	163.6889	902.76953	-15.886336	-126.47513	906.1936	-18.643442	91.836159	951.16479	-227.8736	-46.5802	941.88708	-230.82295
3475	34.74	93.09404	1597.4183	-17.597269	-60.679085	1589.8881	-16.938078	92.92363	1591.5863	-150.61572	-70.124039	1585.2274	-132.71736	24.553867	1416.1987	-206.23375	30.197927	1218.313	-242.91095	25.058847	1363.7654	-49.183899	25.585676	1220.6138	5.1766272	-58.173626	1291.5782	-252.79912	185.16171	1403.9778	-146.67842	289.07773	1361.291	-140.00217	452.55698	1241.9539	-119.05436	430.19571	1380.1576	-79.78038	441.63959	1447.6046	-62.455013	505.49503	1438.6287	-44.882896	466.15912	1527.174	-68.324066	-146.37936	1400.8331	-153.81807	-319.72357	1293.5144	-129.54362	-400.77924	1227.0894	-115.14545	-370.70596	1318.0251	-114.39194	-386.72388	1433.2798	-73.148941	-442.62527	1424.0422	-49.676201	-411.06445	1501.2294	-92.293663	163.48463	902.79425	-15.783526	-126.72912	906.1377	-18.73332	91.728485	951.20013	-227.85783	-46.619152	941.84314	-230.8642
3476	34.75	92.791634	1597.3472	-17.170475	-61.057541	1589.6029	-16.616312	92.709305	1591.6885	-150.20406	-70.401649	1585.1342	-132.44202	24.474001	1416.243	-206.19754	30.142607	1218.3062	-243.06686	24.962297	1363.9323	-49.149303	25.430672	1220.7375	5.1994333	-58.184868	1291.5125	-252.8204	184.77408	1404.218	-146.93277	288.82407	1361.8826	-140.53929	452.90244	1243.4161	-120.12943	429.28693	1381.5691	-81.81942	440.103	1449.2041	-64.955093	504.03513	1440.9961	-47.10984	463.87158	1528.9722	-71.357292	-146.28615	1401.0286	-154.13892	-319.88934	1294.6328	-130.46805	-401.34616	1228.4337	-116.17633	-370.2197	1319.1443	-115.78709	-384.86209	1434.6924	-75.315636	-441.17709	1426.23	-51.943043	-408.61951	1502.7338	-95.103874	163.27382	902.79987	-15.694399	-126.85001	906.11841	-18.729025	91.683624	951.17773	-227.84795	-46.694935	941.83447	-230.92036
3477	34.76	92.472839	1597.1689	-16.72744	-61.456432	1589.3562	-16.370136	92.538719	1591.8373	-149.81329	-70.671219	1585.0726	-132.14839	24.363297	1416.2588	-206.19145	30.072304	1218.3094	-243.10988	24.831741	1364.0061	-49.235203	25.302553	1220.87	5.2145967	-58.252213	1291.4576	-252.82607	184.41756	1404.4333	-147.21379	288.56815	1362.4879	-141.08746	453.08746	1244.759	-121.14348	428.45935	1382.6726	-83.683914	438.8429	1450.8619	-67.249596	502.68643	1443.1681	-49.249199	461.5994	1530.5713	-73.980583	-146.20157	1401.1945	-154.42448	-320.03113	1295.5227	-131.53755	-401.78809	1229.7527	-117.26332	-369.72256	1320.0908	-117.23265	-383.44244	1435.9286	-77.304489	-439.87204	1428.2252	-54.098644	-406.39841	1504.0414	-97.515755	163.10704	902.77856	-15.601193	-127.05151	906.078	-18.793617	91.576492	951.17993	-227.79974	-46.787235	941.80627	-230.9516
3478	34.77	92.170288	1597.0383	-16.267	-61.705315	1589.0883	-16.135643	92.360237	1591.9419	-149.41269	-70.464577	1585.0597	-131.98866	24.291414	1416.2827	-206.22974	29.974651	1218.2813	-243.16042	24.658627	1364.1039	-49.349468	25.183697	1220.9945	5.2218509	-58.295391	1291.432	-252.95358	184.05188	1404.6224	-147.58554	288.29718	1363.0884	-141.6967	453.25217	1245.9304	-122.0402	427.66452	1383.7881	-85.470345	437.26505	1451.9778	-69.265091	501.42157	1445.0865	-51.325802	459.62308	1532.2792	-76.289871	-146.12833	1401.4012	-154.70023	-320.14877	1296.2563	-132.23601	-402.23376	1230.9066	-118.17442	-369.20953	1320.9528	-118.32732	-382.255	1437.1296	-79.154289	-438.52484	1430.0359	-55.981144	-404.3222	1505.307	-99.79081	162.8974	902.8136	-15.54806	-127.25913	906.07117	-18.860579	91.514114	951.15326	-227.76366	-46.856575	941.80212	-231.02411
